<svg width="802" height="223" xmlns="http://www.w3.org/2000/svg"><defs><clipPath clipPathUnits="userSpaceOnUse" id="a"><path d="M0 1080h1080V0H0z"/></clipPath></defs><g clip-path="url(#a)" transform="matrix(1.33333 0 0 -1.33333 -318.907 831.479)"><path d="M764.649 498.222c-2.831-13.048-10.526-24.5-21.361-32.865-.026-.026-.026-.026-.052-.026-1.338.721-2.65 1.441-3.911 2.265-.026 0-.026.026-.052.051-2.831-1.93-5.894-3.603-9.136-5.044-5.353-2.393-11.376-4.22-18.118-5.456-13.77-1.467-25.942-.798-36.52 2.033-10.578 2.857-19.2 7.85-25.942 14.98a49.047 49.047 0 0 0-6.563 8.775c-.463.85-.926 1.673-1.364 2.548-.231.411-.437.85-.643 1.286-.412.875-.798 1.75-1.184 2.651-.154.438-.335.875-.515 1.34-.154.436-.334.874-.49 1.337-.282.797-.54 1.595-.771 2.42-.051.205-.128.436-.18.642a1.987 1.987 0 0 0-.103.412 47.307 47.307 0 0 0-1.544 8.133c-.103 1.544-.103 3.397-.077 5.481h44.086c.05-6.485 2.393-11.297 7.026-14.412 4.606-3.139 10.346-3.91 17.166-2.393 2.573.386 4.812 1.595 6.768 3.654 1.93 2.06 3.346 4.401 4.22 7.104a21.22 21.22 0 0 1 .953 4.838v2.187h.078c0 .155 0 .284-.026.438 0 .412-.026.798-.052 1.21-.257 3.114-1.158 5.893-2.676 8.261a10.205 10.205 0 0 1-2.497 3.551c-1.081.978-2.42 1.75-4.015 2.291-1.621.54-3.165.978-4.683 1.312-1.493.335-3.398.516-5.662.567-2.265.051-4.221.103-5.843.103-1.647 0-3.757-.052-6.356-.103-2.6-.05-4.607-.077-6.023-.077H639.16c6.382 17.166 21.464 30.754 40.56 36.648v-1.57c11.375.772 21.567.514 30.575-.823a78.397 78.397 0 0 0 5.816-1.03c6.665-1.39 12.713-3.449 18.143-6.228 6.924-3.526 12.585-8.339 16.935-14.464 2.394-3.346 4.375-7.05 5.945-11.144 1.364-3.397 2.393-7.05 3.165-10.989.206-1.802.309-5.173.309-10.089v-.436c.412-3.785 1.776-6.924 4.04-9.369M762.255 528.54h-.23c-.079.205-.182.411-.259.617h.258l.231-.618" fill="#fff"/><path d="M760.3 518.116c-.773 3.938-1.802 7.592-3.167 10.99-1.569 4.092-3.55 7.797-5.944 11.143-4.35 6.125-10.012 10.938-16.935 14.464-5.43 2.78-11.478 4.838-18.143 6.228-1.879.412-3.81.746-5.817 1.03-9.008 1.337-19.199 1.595-30.575.823v13.073c0 7.13.052 11.453.103 12.92l36.29.232 25.374.154 5.044 34.435H635.891v-95.892h42.696c1.416 0 3.423.025 6.023.077 2.6.051 4.71.103 6.356.103 1.622 0 3.578-.052 5.842-.103 2.265-.052 4.17-.232 5.662-.567a46.241 46.241 0 0 0 4.684-1.312c1.596-.54 2.934-1.313 4.015-2.29a10.203 10.203 0 0 0 2.496-3.552c1.52-2.368 2.42-5.147 2.677-8.26.026-.413.051-.799.051-1.21.026-.155.026-.284.026-.439 0-.746-.026-1.466-.077-2.187a21.24 21.24 0 0 0-.952-4.839c-.875-2.702-2.29-5.044-4.22-7.103-1.957-2.059-4.196-3.268-6.769-3.654-6.82-1.518-12.56-.746-17.166 2.393-4.633 3.114-6.975 7.927-7.026 14.412h-44.087c-.025-2.084-.025-3.937.078-5.48.025-.928.077-1.777.18-2.549.36-1.905.823-3.784 1.364-5.585.026-.154.052-.283.103-.412.051-.206.13-.437.18-.643.231-.824.49-1.622.772-2.42.154-.462.334-.9.49-1.337.18-.464.36-.9.514-1.339.386-.9.772-1.776 1.183-2.65.207-.438.412-.876.644-1.287.438-.875.901-1.699 1.364-2.548a49.042 49.042 0 0 1 6.563-8.777c6.742-7.128 15.364-12.12 25.942-14.978 10.577-2.83 22.751-3.5 36.52-2.033 6.742 1.236 12.764 3.063 18.117 5.456 3.243 1.441 6.306 3.114 9.137 5.044.026 0 .026.026.051.026a52.365 52.365 0 0 1 5.2 3.99c4.22 3.654 7.72 8.106 10.422 13.33 2.703 5.276 4.555 11.222 5.585 17.887.051 1.7.077 3.27.077 4.71v.437c0 4.916-.103 8.287-.309 10.09" fill="#9a69f5"/><path d="M840.519 518.991c-1.673 8.57-4.735 15.905-9.111 21.953-4.349 6.073-10.011 10.86-16.934 14.36-6.949 3.5-14.927 5.894-23.934 7.181-9.034 1.313-19.226 1.57-30.601.823v12.972c0 7.077.052 11.323.103 12.79l55.95.386 5.07 34.152H716.111v-58.627c21.052-4.478 38.166-18.067 45.656-35.824.077-.206.18-.412.257-.618h.231c.772.026 1.622.052 2.574.052 2.599.051 4.71.103 6.357.103 1.647 0 3.577-.052 5.842-.103 2.264-.052 4.169-.232 5.662-.567a38.75 38.75 0 0 0 4.684-1.286c1.596-.54 2.934-1.313 4.015-2.29a10.016 10.016 0 0 0 2.496-3.5c1.518-2.369 2.419-5.123 2.676-8.185.232-3.088-.077-5.97-.952-8.622a18.551 18.551 0 0 0-4.22-7.026c-1.956-2.033-4.195-3.243-6.769-3.628-6.82-1.519-12.559-.72-17.166 2.367-1.055.67-1.93 1.441-2.728 2.291l-.077.077c-2.265 2.445-3.629 5.584-4.041 9.368v.051c-.129.798-.18 1.647-.18 2.522h-44.086v-2.625c0-2.11.103-3.886.258-5.353 2.059-10.783 6.485-19.714 13.176-26.79 2.831-2.935 5.997-5.56 9.497-7.748.026-.025.026-.05.052-.05 1.26-.825 2.573-1.545 3.911-2.266.026 0 .026-.026.052-.026 3.809-1.98 7.952-3.525 12.431-4.735 10.577-2.805 22.75-3.5 36.519-2.033 6.743 1.235 12.765 3.062 18.118 5.404 5.353 2.368 10.166 5.354 14.387 8.982 4.246 3.63 7.72 8.056 10.423 13.255 2.702 5.198 4.555 11.117 5.61 17.731.103 7.67.026 12.714-.257 15.082M239.18 585.41V456.39h45.928v161.115zM457.029 572.618c-3.613 10.13-8.951 18.96-16.013 26.498-7.067 7.533-15.86 13.5-26.376 17.896-10.522 4.396-22.694 6.597-36.507 6.597h-64.294v-40.05h45.922v.01h18.372c5.809 0 11.067-1.058 15.78-3.18 4.709-2.116 8.67-5.063 11.893-8.829 3.216-3.766 5.687-8.326 7.416-13.659 1.73-5.343 2.593-11.23 2.593-17.663 0-6.285-.826-12.093-2.471-17.43-1.65-5.338-4.084-9.972-7.3-13.898-3.222-3.925-7.184-6.988-11.897-9.183-4.708-2.2-10.052-3.296-16.014-3.296H359.76v77.693l-45.922-37.176v-80.557h64.294c12.718 0 24.255 2.005 34.619 6.01 10.363 4 19.234 9.654 26.614 16.954 7.379 7.3 13.072 16.092 17.076 26.376 4.004 10.284 6.004 21.79 6.004 34.507 0 11.458-1.804 22.255-5.417 32.38" fill="#44c2c9"/><path d="M567.41 531.742l-21.688-37.268 21.53-38.083h49.457zm1.726 91.867l-30.381-52.758-30.381 52.758H458.68l55.815-84.784-53.932-82.434h49.695l28.497 50.403 68.818 116.815z" fill="#44c2c9"/><path d="M239.18 623.609v-31.851l45.928 31.85z" fill="#9a69f5"/></g></svg>