<?xml version="1.0" encoding="UTF-8" standalone="no"?>
<!-- Created with Inkscape (http://www.inkscape.org/) -->

<svg
   version="1.1"
   id="svg840"
   xml:space="preserve"
   width="802"
   height="223"
   viewBox="0 0 802 223"
   sodipodi:docname="Logo.ai.svg"
   inkscape:version="1.1.1 (3bf5ae0, 2021-09-20)"
   xmlns:inkscape="http://www.inkscape.org/namespaces/inkscape"
   xmlns:sodipodi="http://sodipodi.sourceforge.net/DTD/sodipodi-0.dtd"
   xmlns="http://www.w3.org/2000/svg"
   xmlns:svg="http://www.w3.org/2000/svg"><defs
     id="defs844"><clipPath
       clipPathUnits="userSpaceOnUse"
       id="clipPath854"><path
         d="M 0,1080 H 1080 V 0 H 0 Z"
         id="path852" /></clipPath></defs><sodipodi:namedview
     id="namedview842"
     pagecolor="#505050"
     bordercolor="#eeeeee"
     borderopacity="1"
     inkscape:pageshadow="0"
     inkscape:pageopacity="0"
     inkscape:pagecheckerboard="0"
     showgrid="false"
     width="840px"
     inkscape:zoom="0.51363451"
     inkscape:cx="422.4794"
     inkscape:cy="121.68186"
     inkscape:window-width="1366"
     inkscape:window-height="732"
     inkscape:window-x="0"
     inkscape:window-y="0"
     inkscape:window-maximized="1"
     inkscape:current-layer="g846" /><g
     id="g846"
     inkscape:groupmode="layer"
     inkscape:label="Logo Final"
     transform="matrix(1.3333333,0,0,-1.3333333,0,1440)"><g
       id="g848"
       transform="translate(-239.1802,456.39083)"><g
         id="g850"
         clip-path="url(#clipPath854)"><g
           id="g856"
           transform="translate(764.6489,498.2222)"><path
             d="m 0,0 c -2.831,-13.048 -10.526,-24.501 -21.361,-32.865 -0.026,-0.026 -0.026,-0.026 -0.052,-0.026 -1.338,0.721 -2.65,1.441 -3.911,2.265 -0.026,0 -0.026,0.026 -0.052,0.051 -2.831,-1.93 -5.894,-3.603 -9.136,-5.044 -5.353,-2.393 -11.376,-4.22 -18.118,-5.456 -13.769,-1.467 -25.942,-0.798 -36.52,2.033 -10.578,2.857 -19.199,7.85 -25.942,14.979 -2.496,2.65 -4.684,5.584 -6.563,8.776 -0.463,0.849 -0.926,1.673 -1.364,2.548 -0.231,0.411 -0.437,0.849 -0.643,1.286 -0.412,0.875 -0.798,1.75 -1.184,2.651 -0.154,0.438 -0.335,0.875 -0.515,1.339 -0.154,0.437 -0.334,0.875 -0.489,1.338 -0.283,0.797 -0.54,1.595 -0.772,2.419 -0.051,0.206 -0.128,0.437 -0.18,0.643 -0.051,0.129 -0.077,0.258 -0.103,0.412 -0.746,2.625 -1.261,5.353 -1.544,8.133 -0.103,1.544 -0.103,3.397 -0.077,5.481 h 44.086 c 0.051,-6.485 2.393,-11.297 7.026,-14.412 4.606,-3.139 10.346,-3.911 17.166,-2.393 2.573,0.386 4.812,1.595 6.768,3.654 1.931,2.059 3.346,4.401 4.221,7.104 0.489,1.544 0.823,3.139 0.952,4.838 v 2.187 h 0.078 c 0,0.155 0,0.284 -0.026,0.438 0,0.412 -0.026,0.798 -0.052,1.21 -0.257,3.114 -1.158,5.893 -2.676,8.261 -0.592,1.39 -1.416,2.548 -2.497,3.551 -1.081,0.978 -2.419,1.75 -4.015,2.291 -1.621,0.54 -3.165,0.978 -4.683,1.312 -1.493,0.335 -3.398,0.516 -5.662,0.567 -2.265,0.051 -4.221,0.103 -5.843,0.103 -1.647,0 -3.757,-0.052 -6.356,-0.103 -2.6,-0.051 -4.607,-0.077 -6.023,-0.077 h -39.427 c 6.382,17.166 21.464,30.754 40.56,36.648 v -1.57 c 11.375,0.772 21.567,0.514 30.575,-0.823 2.007,-0.284 3.937,-0.618 5.816,-1.03 6.665,-1.39 12.713,-3.449 18.143,-6.228 6.924,-3.526 12.585,-8.339 16.935,-14.464 2.394,-3.346 4.375,-7.051 5.945,-11.144 1.364,-3.397 2.393,-7.051 3.165,-10.989 0.206,-1.802 0.309,-5.173 0.309,-10.089 V 9.419 9.368 C -3.629,5.584 -2.265,2.445 0,0"
             style="fill:#ffffff;fill-opacity:1;fill-rule:nonzero;stroke:none"
             id="path858" /></g><g
           id="g860"
           transform="translate(762.2554,528.5391)"><path
             d="m 0,0 h -0.231 c -0.078,0.206 -0.181,0.412 -0.258,0.618 h 0.258 C -0.154,0.412 -0.077,0.206 0,0"
             style="fill:#ffffff;fill-opacity:1;fill-rule:nonzero;stroke:none"
             id="path862" /></g><g
           id="g864"
           transform="translate(760.2993,518.1162)"><path
             d="m 0,0 c -0.772,3.938 -1.801,7.592 -3.166,10.989 -1.569,4.093 -3.551,7.798 -5.944,11.144 -4.35,6.125 -10.012,10.938 -16.935,14.464 -5.43,2.779 -11.478,4.838 -18.143,6.228 -1.879,0.412 -3.81,0.746 -5.817,1.029 -9.008,1.338 -19.199,1.596 -30.575,0.824 v 13.073 c 0,7.129 0.052,11.453 0.103,12.92 l 36.289,0.232 25.375,0.154 5.044,34.435 H -124.408 V 9.6 h 42.696 c 1.416,0 3.423,0.025 6.023,0.077 2.599,0.051 4.709,0.103 6.356,0.103 1.622,0 3.578,-0.052 5.842,-0.103 2.265,-0.052 4.17,-0.232 5.662,-0.567 1.518,-0.334 3.063,-0.772 4.684,-1.312 1.596,-0.541 2.934,-1.313 4.015,-2.291 1.081,-1.003 1.904,-2.161 2.496,-3.551 1.519,-2.368 2.42,-5.147 2.677,-8.261 0.026,-0.412 0.051,-0.798 0.051,-1.21 0.026,-0.154 0.026,-0.283 0.026,-0.438 0,-0.746 -0.026,-1.466 -0.077,-2.187 -0.129,-1.699 -0.463,-3.294 -0.952,-4.839 -0.875,-2.702 -2.291,-5.044 -4.221,-7.103 -1.956,-2.059 -4.195,-3.268 -6.768,-3.654 -6.821,-1.518 -12.56,-0.746 -17.166,2.393 -4.633,3.114 -6.975,7.927 -7.026,14.412 h -44.087 c -0.025,-2.084 -0.025,-3.937 0.078,-5.481 0.025,-0.927 0.077,-1.776 0.18,-2.548 0.36,-1.905 0.823,-3.784 1.364,-5.585 0.026,-0.154 0.052,-0.283 0.103,-0.412 0.051,-0.206 0.129,-0.437 0.18,-0.643 0.231,-0.824 0.489,-1.622 0.772,-2.42 0.154,-0.462 0.334,-0.9 0.489,-1.337 0.18,-0.464 0.36,-0.901 0.515,-1.339 0.386,-0.901 0.772,-1.776 1.183,-2.651 0.207,-0.437 0.412,-0.875 0.644,-1.286 0.438,-0.875 0.901,-1.699 1.364,-2.548 1.879,-3.192 4.066,-6.126 6.563,-8.777 6.742,-7.128 15.364,-12.121 25.942,-14.978 10.577,-2.831 22.751,-3.5 36.519,-2.033 6.743,1.236 12.765,3.063 18.118,5.456 3.243,1.441 6.306,3.114 9.137,5.044 0.026,0 0.026,0.026 0.051,0.026 1.828,1.235 3.552,2.548 5.199,3.989 4.221,3.655 7.721,8.107 10.423,13.331 2.703,5.276 4.555,11.222 5.585,17.887 0.051,1.699 0.077,3.269 0.077,4.71 v 0.051 0.386 C 0.309,-5.173 0.206,-1.802 0,0"
             style="fill:#9a69f5;fill-opacity:1;fill-rule:nonzero;stroke:none"
             id="path866" /></g><g
           id="g868"
           transform="translate(840.519,518.9912)"><path
             d="m 0,0 c -1.673,8.57 -4.735,15.905 -9.111,21.953 -4.349,6.073 -10.011,10.86 -16.934,14.36 -6.949,3.5 -14.927,5.894 -23.934,7.181 -9.034,1.313 -19.226,1.57 -30.601,0.823 v 12.972 c 0,7.077 0.052,11.323 0.103,12.79 l 55.95,0.386 5.07,34.152 H -124.408 V 45.99 c 21.052,-4.478 38.166,-18.067 45.656,-35.824 0.077,-0.206 0.18,-0.412 0.257,-0.618 h 0.231 c 0.772,0.026 1.622,0.052 2.574,0.052 2.599,0.051 4.71,0.103 6.357,0.103 1.647,0 3.577,-0.052 5.842,-0.103 2.264,-0.052 4.169,-0.232 5.662,-0.567 1.518,-0.308 3.088,-0.746 4.684,-1.286 1.596,-0.541 2.934,-1.313 4.015,-2.291 1.081,-0.978 1.904,-2.136 2.496,-3.5 1.518,-2.368 2.419,-5.122 2.676,-8.184 0.232,-3.088 -0.077,-5.971 -0.952,-8.622 -0.875,-2.65 -2.29,-4.993 -4.22,-7.026 -1.956,-2.033 -4.195,-3.243 -6.769,-3.628 -6.82,-1.519 -12.559,-0.721 -17.166,2.367 -1.055,0.669 -1.93,1.441 -2.728,2.291 -0.026,0.025 -0.051,0.051 -0.077,0.077 -2.265,2.445 -3.629,5.584 -4.041,9.368 v 0.051 c -0.129,0.798 -0.18,1.647 -0.18,2.522 h -44.086 v -2.625 c 0,-2.11 0.103,-3.886 0.258,-5.353 2.059,-10.783 6.485,-19.714 13.176,-26.791 2.831,-2.934 5.997,-5.559 9.497,-7.747 0.026,-0.025 0.026,-0.051 0.052,-0.051 1.26,-0.824 2.573,-1.544 3.911,-2.265 0.026,0 0.026,-0.026 0.052,-0.026 3.809,-1.981 7.952,-3.525 12.431,-4.735 10.577,-2.805 22.75,-3.5 36.519,-2.033 6.743,1.235 12.765,3.062 18.118,5.404 5.353,2.368 10.166,5.354 14.387,8.982 4.246,3.629 7.72,8.056 10.423,13.255 2.702,5.198 4.555,11.117 5.61,17.731 C 0.36,-7.412 0.283,-2.368 0,0"
             style="fill:#44c2c9;fill-opacity:1;fill-rule:nonzero;stroke:none"
             id="path870" /></g><g
           id="g872"
           transform="translate(239.1802,585.4097)"><path
             d="M 0,0 V -129.019 H 45.928 V 32.095 Z"
             style="fill:#44c2c9;fill-opacity:1;fill-rule:nonzero;stroke:none"
             id="path874" /></g><g
           id="g876"
           transform="translate(457.0288,572.6182)"><path
             d="m 0,0 c -3.613,10.13 -8.951,18.959 -16.013,26.498 -7.067,7.533 -15.859,13.5 -26.376,17.896 -10.522,4.396 -22.694,6.597 -36.507,6.597 H -143.19 V 10.94 h 45.922 v 0.011 h 18.372 c 5.809,0 11.067,-1.058 15.781,-3.18 4.708,-2.116 8.67,-5.063 11.892,-8.829 3.216,-3.766 5.687,-8.326 7.416,-13.659 1.73,-5.343 2.593,-11.23 2.593,-17.663 0,-6.285 -0.826,-12.093 -2.471,-17.431 -1.65,-5.337 -4.084,-9.971 -7.3,-13.897 -3.222,-3.925 -7.184,-6.988 -11.897,-9.183 -4.708,-2.201 -10.052,-3.296 -16.014,-3.296 H -97.268 V 1.506 L -143.19,-35.67 v -80.557 h 64.294 c 12.718,0 24.255,2.005 34.619,6.009 10.363,4 19.234,9.655 26.614,16.955 7.379,7.3 13.072,16.092 17.076,26.376 4.004,10.284 6.004,21.79 6.004,34.507 C 5.417,-20.922 3.613,-10.125 0,0"
             style="fill:#44c2c9;fill-opacity:1;fill-rule:nonzero;stroke:none"
             id="path878" /></g><g
           id="g880"
           transform="translate(567.4106,531.7422)"><path
             d="m 0,0 -21.689,-37.268 21.53,-38.083 H 49.298 Z M 1.725,91.867 -28.656,39.109 -59.037,91.867 h -49.694 l 55.815,-84.784 -53.932,-82.434 h 49.695 l 28.497,50.403 68.818,116.815 z"
             style="fill:#44c2c9;fill-opacity:1;fill-rule:nonzero;stroke:none"
             id="path882" /></g><g
           id="g884"
           transform="translate(239.1802,623.6089)"><path
             d="M 0,0 V -31.851 L 45.928,0 Z"
             style="fill:#9a69f5;fill-opacity:1;fill-rule:nonzero;stroke:none"
             id="path886" /></g></g></g></g></svg>
