<?xml version="1.0" encoding="UTF-8"?>
<svg xmlns="http://www.w3.org/2000/svg" xmlns:xlink="http://www.w3.org/1999/xlink" viewBox="0 0 24 24" width="24px" height="24px">
<g id="surface43208317">
<path style=" stroke:none;fill-rule:nonzero;fill:rgb(100%,100%,100%);fill-opacity:1;" d="M 20.570312 3.011719 C 20.238281 2.976562 19.878906 3.027344 19.515625 3.171875 C 19.066406 3.347656 12.015625 6.316406 5.441406 9.082031 L 3.269531 9.996094 C 2.429688 10.335938 2.003906 10.890625 2.003906 11.636719 C 2.003906 12.160156 2.226562 12.871094 3.28125 13.289062 L 6.949219 14.757812 C 7.265625 15.707031 8 17.917969 8.1875 18.503906 C 8.296875 18.851562 8.574219 19.730469 9.277344 19.933594 C 9.417969 19.984375 9.570312 20.007812 9.722656 20.007812 C 10.164062 20.007812 10.484375 19.800781 10.640625 19.683594 L 12.972656 17.710938 L 15.800781 20.328125 C 15.910156 20.4375 16.488281 21 17.261719 21 C 18.230469 21 18.960938 20.195312 19.117188 19.414062 C 19.199219 18.988281 21.929688 5.285156 21.929688 5.289062 C 22.171875 4.191406 21.730469 3.621094 21.449219 3.375 C 21.207031 3.167969 20.90625 3.046875 20.574219 3.011719 Z M 19.910156 5.171875 C 19.53125 7.0625 17.476562 17.378906 17.164062 18.863281 L 13.027344 15.039062 L 10.222656 17.417969 L 11 14.375 C 11 14.375 16.363281 8.945312 16.683594 8.628906 C 16.945312 8.378906 17 8.289062 17 8.199219 C 17 8.085938 16.941406 8 16.800781 8 C 16.675781 8 16.507812 8.121094 16.414062 8.175781 C 15.273438 8.886719 10.402344 11.664062 8.007812 13.027344 L 4.53125 11.636719 L 6.21875 10.929688 C 10.519531 9.117188 18.175781 5.894531 19.910156 5.171875 Z M 19.910156 5.171875 "/>
</g>
</svg>
