<svg xmlns="http://www.w3.org/2000/svg" width="24" height="24"><path d="M20.57 3.012a2.222 2.222 0 0 0-1.054.16c-.45.176-7.5 3.144-14.075 5.91l-2.171.914c-.84.34-1.266.895-1.266 1.64 0 .524.223 1.235 1.277 1.653l3.668 1.469c.317.949 1.051 3.16 1.239 3.746.109.348.386 1.226 1.09 1.43.14.05.292.074.445.074.441 0 .761-.207.918-.324l2.332-1.973 2.828 2.617c.11.11.687.672 1.46.672.97 0 1.7-.805 1.856-1.586.082-.426 2.813-14.129 2.813-14.125.242-1.098-.2-1.668-.48-1.914a1.585 1.585 0 0 0-.876-.363zm-.66 2.16c-.379 1.89-2.433 12.207-2.746 13.691l-4.137-3.824-2.804 2.379.777-3.043s5.363-5.43 5.684-5.746c.261-.25.316-.34.316-.43 0-.113-.059-.199-.2-.199-.124 0-.292.121-.386.176-1.14.71-6.012 3.488-8.406 4.851l-3.477-1.39 1.688-.707c4.3-1.813 11.957-5.035 13.691-5.758zm0 0" fill="#000"/></svg>
