<svg xmlns="http://www.w3.org/2000/svg" width="24" height="24"><path d="M12.012 2c-5.508 0-9.989 4.477-9.989 9.984a9.922 9.922 0 0 0 1.332 4.993L2 22l5.234-1.234a10.029 10.029 0 0 0 4.77 1.214h.008c5.504 0 9.984-4.48 9.988-9.984 0-2.672-1.04-5.18-2.922-7.066A9.912 9.912 0 0 0 12.012 2zm0 2c2.133 0 4.14.832 5.648 2.344A7.924 7.924 0 0 1 20 11.992c-.004 4.403-3.586 7.988-7.992 7.988a8.02 8.02 0 0 1-3.817-.972l-.671-.367-.747.175-1.968.465.48-1.785.219-.8-.414-.72a7.937 7.937 0 0 1-1.067-3.992C4.023 7.582 7.605 4 12.012 4zM8.477 7.375a.908.908 0 0 0-.665.313c-.23.25-.875.851-.875 2.082 0 1.226.895 2.414 1.02 2.578.121.168 1.727 2.765 4.262 3.765 2.11.832 2.535.668 2.996.63.457-.044 1.476-.606 1.683-1.188.207-.582.207-1.086.149-1.188-.063-.105-.23-.164-.48-.289-.25-.125-1.477-.73-1.704-.812-.23-.082-.398-.125-.562.125-.168.25-.645.812-.79.976-.148.168-.292.192-.542.067-.25-.13-1.055-.391-2.008-1.243-.742-.66-1.242-1.476-1.387-1.726-.148-.25-.015-.387.11-.508.113-.113.25-.293.375-.437.12-.149.164-.254.25-.418.082-.165.039-.313-.024-.438-.062-.125-.547-1.36-.77-1.851-.187-.415-.382-.426-.562-.43-.144-.008-.312-.008-.476-.008zm0 0" fill="#000"/></svg>
